<svg xmlns="http://www.w3.org/2000/svg" xmlns:xlink="http://www.w3.org/1999/xlink" width="24" height="24" viewBox="0 0 24 24" fill="none"><g opacity="1"  transform="translate(0 0)  rotate(0)"><path id="Combined Shape" fill-rule="evenodd" style="fill:#ffffff" opacity="1" d="M20.5 7C20.78 7 21 6.78 21 6.5C21 6.22 20.78 6 20.5 6L9 6L9 5C9 4.45 8.55 4 8 4L6 4C5.45 4 5 4.45 5 5L5 6L3.5 6C3.22 6 3 6.22 3 6.5C3 6.78 3.22 7 3.5 7L5 7L5 8.03C5 8.58 5.45 9.03 6 9.03L8 9.03C8.55 9.03 9 8.58 9 8.03L9 7L20.5 7ZM8 8.03L6 8.03L6 5L8 5L8 8.03ZM3.5 11C3.22 11 3 11.22 3 11.5C3 11.78 3.22 12 3.5 12L14 12L14 13.03C14 13.58 14.45 14.03 15 14.03L17 14.03C17.55 14.03 18 13.58 18 13.03L18 12L20.5 12C20.78 12 21 11.78 21 11.5C21 11.22 20.78 11 20.5 11L18 11L18 10C18 9.45 17.55 9 17 9L15 9C14.45 9 14 9.45 14 10L14 11L3.5 11ZM15 13.03L17 13.03L17 10L15 10L15 13.03ZM8 17L8 18.03C8 18.58 8.45 19.03 9 19.03L11 19.03C11.55 19.03 12 18.58 12 18.03L12 17L20.5 17C20.78 17 21 16.78 21 16.5C21 16.22 20.78 16 20.5 16L12 16L12 15C12 14.45 11.55 14 11 14L9 14C8.45 14 8 14.45 8 15L8 16L3.5 16C3.22 16 3 16.22 3 16.5C3 16.78 3.22 17 3.5 17L8 17ZM9 18.03L11 18.03L11 15L9 15L9 18.03Z"></path></g></svg>