<svg xmlns="http://www.w3.org/2000/svg" xmlns:xlink="http://www.w3.org/1999/xlink" width="24" height="24" viewBox="0 0 24 24" fill="none"><g opacity="1"  transform="translate(0 0)"><path id="Combined Shape" fill-rule="evenodd" style="fill:#ffffff" opacity="1" d="M15 4.5C15 3.67 14.33 3 13.5 3L10.5 3C9.67 3 9 3.67 9 4.5L9 5L4.5 5C4.22 5 4 5.22 4 5.5C4 5.78 4.22 6 4.5 6L5 6L5 18.5C5 19.88 6.12 21 7.5 21L16.5 21C17.88 21 19 19.88 19 18.5L19 6L19.5 6C19.78 6 20 5.78 20 5.5C20 5.22 19.78 5 19.5 5L15 5L15 4.5ZM13.5 4C13.78 4 14 4.22 14 4.5L14 5L10 5L10 4.5C10 4.22 10.22 4 10.5 4L13.5 4ZM7.5 20C6.67 20 6 19.33 6 18.5L6 6L18 6L18 18.5C18 19.33 17.33 20 16.5 20L7.5 20ZM9.5 17C9.22 17 9 16.78 9 16.5L9 9.5C9 9.22 9.22 9 9.5 9C9.78 9 10 9.22 10 9.5L10 16.5C10 16.78 9.78 17 9.5 17ZM14.5 17C14.22 17 14 16.78 14 16.5L14 9.5C14 9.22 14.22 9 14.5 9C14.78 9 15 9.22 15 9.5L15 16.5C15 16.78 14.78 17 14.5 17Z"></path></g></svg>