<svg xmlns="http://www.w3.org/2000/svg" xmlns:xlink="http://www.w3.org/1999/xlink" width="24" height="24" viewBox="0 0 24 24" fill="none"><g opacity="1"  transform="translate(0 0)  rotate(0)"><path id="Combined Shape" fill-rule="evenodd" style="fill:#808080" opacity="1" d="M19.85 6.85L7.85 18.85C7.76 18.95 7.63 19 7.5 19L4.5 19C4.22 19 4 18.78 4 18.5L4 15.5C4 15.37 4.05 15.24 4.15 15.15L16.15 3.15C16.34 2.95 16.66 2.95 16.85 3.15L19.85 6.15C20.05 6.34 20.05 6.66 19.85 6.85ZM18.79 6.5L16.5 4.21L5 15.71L5 18L7.29 18L18.79 6.5ZM15.01 20.5C15.01 20.78 14.79 21 14.51 21L4.5 21C4.22 21 4 20.78 4 20.5C4 20.22 4.22 20 4.5 20L14.51 20C14.79 20 15.01 20.22 15.01 20.5Z"></path></g></svg>