<svg xmlns="http://www.w3.org/2000/svg" xmlns:xlink="http://www.w3.org/1999/xlink" width="24" height="24" viewBox="4 2 16 20" fill="none"><g opacity="1"  transform="translate(0 0)"><path id="Shape" fill-rule="evenodd" style="fill:#000000" opacity="1" d="M19 10C19 6.13 15.87 3 12 3C8.13 3 5 6.13 5 10C5 13.17 7.23 16.78 11.66 20.87C11.85 21.04 12.15 21.04 12.34 20.87C16.77 16.78 19 13.17 19 10ZM12 4C8.69 4 6 6.69 6 10C6 12.75 7.99 16.04 12 19.82C16.01 16.04 18 12.75 18 10C18 6.69 15.31 4 12 4ZM16 10C16 7.79 14.21 6 12 6C9.79 6 8 7.79 8 10C8 12.21 9.79 14 12 14C14.21 14 16 12.21 16 10ZM15 10C15 8.34 13.66 7 12 7C10.34 7 9 8.34 9 10C9 11.66 10.34 13 12 13C13.66 13 15 11.66 15 10Z"></path></g></svg>