<svg xmlns="http://www.w3.org/2000/svg" xmlns:xlink="http://www.w3.org/1999/xlink" width="24" height="24" viewBox="-3 -3 30 30" fill="none">
  <g opacity="1" transform="translate(0 0)">
    <path id="Path 944" fill-rule="evenodd" style="fill:#ffffff; stroke:#ffffff; stroke-width:1.65;" opacity="1" d="M5.28 3.74002C5.1 4.02002 5 4.34002 5 4.67002L5 19.33C5 20.24 5.74 20.98 6.65 20.98C6.98 20.98 7.3 20.88 7.58 20.69L18.23 13.47C19.04 12.92 19.25 11.82 18.7 11.01C18.58 10.82 18.42 10.66 18.23 10.54L7.58 3.31002C6.82 2.79002 5.8 2.99002 5.28 3.74002ZM6 19.33C6 19.69 6.29 19.98 6.65 19.98C6.78 19.98 6.91 19.94 7.01 19.87L17.67 12.64C18.02 12.4 18.12 11.92 17.88 11.57C17.82 11.49 17.75 11.42 17.67 11.36L7.01 4.13002C6.72 3.93002 6.31 4.01002 6.11 4.31002C6.04 4.41002 6 4.54002 6 4.67002L6 19.33Z"></path>
  </g>
</svg>