<svg xmlns="http://www.w3.org/2000/svg" xmlns:xlink="http://www.w3.org/1999/xlink" width="30" height="30" viewBox="0 0 30 30" fill="none"><g opacity="1"  transform="translate(0 0)"><path id="Combined Shape" fill-rule="evenodd" style="fill:#808080" opacity="1" d="M15.6975 3.7749C15.3575 3.7549 15.0575 4.0149 15.0375 4.3649C15.0175 4.7049 15.2775 5.0049 15.6275 5.0249C20.8775 5.3449 24.9975 9.7149 24.9975 15.0049C24.9975 18.0849 23.5975 20.9349 21.2575 22.8049L21.2575 19.3749C21.2575 19.0349 20.9675 18.7549 20.6275 18.7549C20.2875 18.7549 19.9975 19.0349 19.9975 19.3749L19.9975 24.3749C19.9975 24.7149 20.2875 24.9949 20.6275 24.9949L25.6275 24.9949C25.9675 24.9949 26.2475 24.7149 26.2475 24.3749C26.2475 24.0349 25.9675 23.7449 25.6275 23.7449L22.0775 23.7449C24.6775 21.6449 26.2475 18.4549 26.2475 15.0049C26.2475 9.0449 21.6175 4.1349 15.6975 3.7749ZM5 15C5 11.91 6.41 9.07 8.75 7.19L8.75 10.63C8.75 10.97 9.03 11.25 9.37 11.25C9.72 11.25 10 10.97 10 10.63L10 5.62C10 5.28 9.72 5 9.37 5L4.38 5C4.03 5 3.75 5.28 3.75 5.62C3.75 5.97 4.03 6.25 4.38 6.25L7.93 6.25C5.32 8.36 3.75 11.55 3.75 15C3.75 20.98 8.42 25.9 14.35 26.24C14.7 26.26 14.99 25.99 15.01 25.65C15.03 25.3 14.77 25.01 14.42 24.99C9.15 24.69 5 20.31 5 15Z"></path></g></svg>