<svg xmlns="http://www.w3.org/2000/svg" xmlns:xlink="http://www.w3.org/1999/xlink" width="24" height="24" viewBox="0 -1 24 24" fill="none">
  <g opacity="1" transform="translate(0 0)">
    <path id="Combined Shape" fill-rule="evenodd" style="fill:#ffffff; stroke:#ffffff; stroke-width:1.2;" opacity="1" d="M11.5 7L16.29 7L6.15 17.15C5.95 17.34 5.95 17.66 6.15 17.85C6.34 18.05 6.66 18.05 6.85 17.85L17 7.71L17 12.5C17 12.78 17.22 13 17.5 13C17.78 13 18 12.78 18 12.5L18 6.5C18 6.22 17.78 6 17.5 6L11.5 6C11.22 6 11 6.22 11 6.5C11 6.78 11.22 7 11.5 7Z"></path>
  </g>
</svg>
