<svg xmlns="http://www.w3.org/2000/svg" xmlns:xlink="http://www.w3.org/1999/xlink" width="24" height="24" viewBox="0 0 24 24" fill="none"><g opacity="1"  transform="translate(0 0)  rotate(0)"><path id="Combined Shape" fill-rule="evenodd" style="fill:#ffffff" opacity="1" d="M20 4.5C20 4.78 19.78 5 19.5 5L5.5 5C5.22 5 5 4.78 5 4.5C5 4.22 5.22 4 5.5 4L19.5 4C19.78 4 20 4.22 20 4.5ZM13 8.71L16.15 11.85C16.34 12.05 16.66 12.05 16.85 11.85C17.05 11.66 17.05 11.34 16.85 11.15L12.85 7.15C12.66 6.95 12.34 6.95 12.15 7.15L8.15 11.15C7.95 11.34 7.95 11.66 8.15 11.85C8.34 12.05 8.66 12.05 8.85 11.85L12 8.71L12 19.5C12 19.78 12.22 20 12.5 20C12.78 20 13 19.78 13 19.5L13 8.71Z"></path></g></svg>