<svg t="1740192443324" class="icon" viewBox="50 50 900 900" version="1.1" xmlns="http://www.w3.org/2000/svg" p-id="6175" width="200" height="200">
    <path 
        d="M693.344 781.504V170.688a32 32 0 0 1 64 0v610.816l72.576-77.952a32 32 0 1 1 46.848 43.616l-98.88 106.208c-6.208 6.656-12.832 13.792-19.2 19.008-7.36 6.048-18.4 12.992-33.344 12.992s-25.984-6.944-33.344-12.992a210.144 210.144 0 0 1-19.2-19.008l-98.88-106.208a32 32 0 1 1 46.848-43.616l72.576 77.952z m-290.112-461.024l-72.576-77.952v610.816a32 32 0 0 1-64 0V242.528l-72.576 77.984a32 32 0 1 1-46.848-43.616L246.08 170.688c6.176-6.656 12.832-13.792 19.2-19.008 7.36-6.016 18.4-12.992 33.344-12.992s25.984 6.944 33.344 12.992c6.368 5.216 13.024 12.352 19.2 19.008l98.848 106.208a32 32 0 1 1-46.848 43.616z" 
        p-id="6176" 
        fill="white"
        stroke="white"
        stroke-width="20"
    ></path>
</svg>